<?xml version="1.0" encoding="UTF-8" standalone="no"?>
<!DOCTYPE svg PUBLIC "-//W3C//DTD SVG 20010904//EN"
 "http://www.w3.org/TR/2001/REC-SVG-20010904/DTD/svg10.dtd">
<svg enable-background="new 0 0 100 100" version="1.1" width="150.000000pt" height="150.000000pt" viewBox="0 0 150 150" preserveAspectRatio="xMidYMid meet" xml:space="preserve" xmlns="http://www.w3.org/2000/svg"><path d="m60.674 30.006c-0.9175-0.01637-1.838-0.0018-2.7637 0.04492l-1.5469 0.85742-10.045 13.258-7.7266-0.82226v0.73047l2.3184 7.1172-30.91 39.836 1.5449 4.2578s0.08884 1.4475 0 3.6543-1.2197 7.1002-0.77148 9.5664c0.71786 3.8189 1.7645 4.7044 3.2305 6.5938 1.466 1.8893 4.4961 4.9004 4.4961 4.9004h79.424l17.395-17.953-3.8633-2.6035 28.59-18.447v-0.73047c-26.309-19.597-50.929-49.752-79.371-50.26zm-0.40234 0.37109c0.74212 0.0042 1.7172 0.0545 2.9961 0.18555 5.8324 0.59761 15.222 2.8992 24.652 14.328 11.133 13.493 12.06 26.188-1.8496 47.805l-1.4707-1.4648s-2.1354 0.84623-4.2402 1.9336c-1.4918 1.0935-1.4641 1.947-2.916 2.7637 0 0-2.5346 0.62523-2.5332 0.69141 0.22811 11.094-6.1976 12.93-19.318 14.025v-12.238s1.6995-0.0469 4.2676 0.46094c1.284 0.2539 5.0962 1.1429 7.7832 2.4199l1.0449 0.10351 0.8125-1.4004s2.8267-3.879 3.0918-9.0254c0.07523-1.4535 0.11976-3.2586 0-5.0801-0.11985-1.8214-0.30096-3.8802-0.77344-5.8203-0.83748-3.4386-2.3184-5.6562-2.3184-5.6562s1.0388-1.4457 1.5469-2.3203c0.7786-1.3407 2.0813-4.1784 2.7109-8.875 0.40571-3.0268 0.4881-10.209-0.87695-14.016 0 0-0.28906-0.83875-0.28906-1.3574l-14.682-2.4395v-14.619s0.13496-0.41683 2.3613-0.4043zm-3.9082 1.2637-0.38476 13.553-8.8867-1.0918zm-15.453 20.283c1.5455 7.1814-1.546 13.284-6.9551 18.848l-0.18555 0.20508-0.0078 1.0098 0.19336 0.24805c2.3182 7.1175 3.8624 15.759 0.77148 23.324l-5.4082-3.207-18.545-1.3887zm66.801 4.875 1.5156 7.0527 3.6953-3.2363-3.1641 3.7578 7.041 1.5117-7.1133 1.5293 3.3398 3.8145-3.8184-3.2148-1.4961 6.959-1.4961-6.9707-3.8027 3.3281 3.3027-3.9219-7.0898-1.5234 6.9102-1.4824-3.2246-3.6836 3.8613 3.25zm-57.789 13.537c1.3945 0.0045 2.7708 0.07218 4.123 0.23438v1.4629l-17-0.78711c4.3467-0.35974 8.6933-0.9237 12.877-0.91016zm7.2148 0.71094 7.7266 2.2832-7.7266-1.1875zm66.488 3.2559c3.1179 0.04739 6.2793 0.70301 9.4668 2.1523 3.091 1.2061 5.4082 3.9375 5.4082 3.9375l-29.363 16.318c-8.8865 4.39-16.353 3.3055-22.535-3.4922 10.673-7.416 23.512-19.121 37.023-18.916zm-70.352 24.107v12.426c-7.7273 1.005-13.137-0.41876-13.137-8.459v-2.1484l1.1328-0.24609s2.2237-0.61648 7.8359-1.25c2.2336-0.25213 4.168-0.32227 4.168-0.32227z" fill-rule="evenodd" style="paint-order:stroke fill markers"/></svg>
