<?xml version="1.0" encoding="UTF-8"?>
<svg enable-background="new 0 0 100 100" version="1.1" viewBox="0 0 128 90" xmlns="http://www.w3.org/2000/svg" xmlns:cc="http://creativecommons.org/ns#" xmlns:dc="http://purl.org/dc/elements/1.1/" xmlns:rdf="http://www.w3.org/1999/02/22-rdf-syntax-ns#" xmlns:xlink="http://www.w3.org/1999/xlink"><title>Tavenem Logo</title><metadata><rdf:RDF><cc:Work rdf:about=""><dc:format>image/svg+xml</dc:format><dc:type rdf:resource="http://purl.org/dc/dcmitype/StillImage"/><dc:title>Tavenem Logo</dc:title></cc:Work></rdf:RDF></metadata><defs><linearGradient id="a" x2="128" y1="45" y2="45" gradientUnits="userSpaceOnUse"><stop stop-color="#a03dff" offset=".235"/><stop stop-color="#c080ff" offset=".64"/><stop stop-color="#e5ccff" offset=".738"/><stop stop-color="#c080ff" offset=".841"/><stop stop-color="#9f3dff" offset="1"/></linearGradient></defs><path id="ship" d="m48.57 78.823v-16.017c10.548-1.1428 14.527 0.69532 14.527 0.69532s0.35556 15.181-14.527 15.321zm-0.034-56.926v-19.143c31.011 2.7493 45.599 30.675 25.707 59.046l-10.903 4.4433c8.3939-26.915 4.5812-35.454 1.353-44.199zm-5.301-19.526c35.71 0.063 69.516 24.948 82.223 47.737 0.134 0.136 0.193 0.272 0.17 0.408-0.016 0.094-0.072 0.188-0.17 0.283l-27.008 17.415c-5.981 11.208-7.852 14.311-12.803 19.415h-75.221c-3.441-3.283-6.672-7.576-7.323-10.909l-0.732-16.513 20.575 2.8093c4.4299-21.255 3.2846-30.486 9.43e-4 -38.9-0.982-0.603-1.0695-1.8082-0.45051-1.8592l20.746-0.58687zm53.015 63.25c-10.103 3.012-20.306 4.843-20.606-2.022 9.532-9.317 19.405-15.412 29.508-16.713 10.003-1.311 17.774 1.2818 19.774 3.5577zm-52.915 13.41c-10.503-0.755-14.256-6.9023-14.256-14.668 4.511-0.919 9.7053-1.8825 14.256-1.4845v16.174z" fill="url(#a)" fill-rule="evenodd" stroke="url(#a)" stroke-linejoin="round" stroke-width="4.7425" style="paint-order:stroke fill markers"/><path id="star" d="m95 25.185 1.43 6.67 3.49-3.06-2.99 3.55 6.66 1.43-6.73 1.45 3.16 3.61-3.61-3.04-1.41 6.58-1.41-6.59-3.6 3.15 3.12-3.71-6.7-1.44 6.54-1.4-3.05-3.48 3.65 3.07z" fill="#fff" fill-rule="evenodd" style="paint-order:stroke fill markers"/></svg>
