<?xml version="1.0" standalone="no"?>
<!DOCTYPE svg PUBLIC "-//W3C//DTD SVG 20010904//EN"
 "http://www.w3.org/TR/2001/REC-SVG-20010904/DTD/svg10.dtd">
<svg version="1.0" xmlns="http://www.w3.org/2000/svg"
 width="1024.000000pt" height="1024.000000pt" viewBox="0 0 1024.000000 1024.000000"
 preserveAspectRatio="xMidYMid meet">
<metadata>
Created by potrace 1.14, written by Peter Selinger 2001-2017
</metadata>
<g transform="translate(0.000000,1024.000000) scale(0.100000,-0.100000)"
fill="#000000" stroke="none">
<path d="M3395 8707 c-54 -22 -122 -88 -109 -108 3 -5 1 -9 -5 -9 -7 0 -11
-227 -11 -707 0 -389 -1 -708 -3 -709 -1 -2 -93 -6 -202 -9 -110 -3 -270 -7
-355 -10 -144 -4 -227 -6 -715 -20 -269 -7 -279 -10 -348 -75 -40 -37 -72
-114 -69 -165 4 -72 33 -144 83 -205 16 -19 29 -42 29 -51 0 -8 3 -19 8 -23 4
-4 7 -11 7 -14 1 -7 23 -77 32 -102 7 -18 4 -6 42 -150 16 -63 32 -126 35
-140 2 -14 7 -41 10 -60 3 -19 9 -48 12 -65 10 -58 23 -166 31 -275 14 -171 5
-710 -12 -801 -3 -13 -7 -50 -10 -83 -3 -34 -8 -83 -10 -111 -3 -27 -7 -61 -9
-75 -3 -14 -8 -50 -11 -80 -3 -30 -8 -66 -10 -80 -3 -14 -7 -38 -9 -55 -3 -16
-15 -90 -26 -163 -12 -72 -23 -144 -25 -160 -2 -15 -4 -28 -6 -29 -2 -4 -4
-12 -14 -68 -4 -27 -9 -54 -11 -60 -1 -5 -6 -28 -9 -50 -4 -22 -9 -47 -10 -55
-2 -8 -4 -22 -4 -31 -1 -13 -9 -16 -33 -13 -58 6 -122 14 -158 20 -34 5 -61 9
-132 18 -18 3 -121 17 -228 31 -107 14 -211 28 -230 31 -19 2 -46 6 -60 9 -14
3 -47 7 -75 10 -27 3 -61 8 -75 10 -49 8 -115 17 -145 20 -54 6 -120 15 -145
20 -14 3 -46 7 -71 10 -25 3 -56 8 -70 10 -48 11 -116 7 -152 -8 -45 -19 -69
-41 -96 -89 -21 -39 -22 -104 -7 -428 14 -287 18 -361 20 -435 2 -46 6 -88 10
-94 4 -6 2 -11 -4 -11 -6 0 -9 -4 -6 -9 4 -5 8 -65 11 -133 12 -289 15 -332
27 -371 6 -23 12 -47 13 -52 2 -6 15 -42 30 -80 58 -146 193 -367 287 -470 16
-16 28 -33 28 -37 0 -24 279 -306 324 -328 42 -20 48 -20 3080 -20 2265 0
3048 3 3077 12 22 6 61 33 91 62 75 73 227 245 301 341 4 6 15 20 25 32 25 29
49 63 70 94 9 14 47 71 83 125 76 116 170 270 224 369 21 39 41 72 44 75 3 3
17 28 31 55 13 28 27 52 30 55 3 3 15 25 28 50 79 151 108 206 112 210 3 3 19
32 35 65 27 53 40 66 110 112 44 28 85 56 91 61 6 6 26 18 45 27 19 10 36 21
39 24 7 8 68 51 74 51 2 0 28 16 57 35 67 44 59 39 207 135 68 44 124 80 126
80 2 0 57 35 122 78 176 116 233 152 240 151 4 0 10 4 13 9 7 11 105 75 159
103 12 7 22 16 22 21 0 4 4 8 9 8 6 0 63 34 128 77 65 42 162 105 216 140 53
34 101 63 106 63 5 0 11 4 13 8 3 8 92 67 254 167 174 108 216 159 218 263 1
69 0 71 -46 149 -21 35 -38 65 -38 68 0 15 -296 463 -327 493 -7 7 -13 16 -13
20 0 4 -10 19 -23 33 -12 15 -34 42 -48 60 -134 171 -160 203 -264 323 -107
124 -381 414 -438 465 -10 9 -48 45 -86 81 -82 79 -154 146 -245 225 -38 33
-79 69 -92 80 -12 11 -37 31 -54 45 -18 14 -40 32 -49 40 -9 9 -50 43 -91 75
-41 33 -77 62 -80 66 -7 7 -313 236 -364 271 -22 16 -86 59 -141 96 -55 37
-104 70 -110 75 -17 14 -117 77 -165 105 -25 14 -47 29 -50 32 -16 18 -454
270 -470 270 -4 0 -13 7 -20 15 -7 8 -16 13 -20 10 -5 -3 -10 -1 -12 3 -2 7
-392 205 -408 208 -5 1 -50 21 -188 85 -35 16 -66 29 -69 29 -3 0 -21 7 -41
16 -21 9 -55 25 -77 34 -50 23 -336 132 -350 134 -5 1 -15 5 -21 8 -6 4 -21 9
-35 12 -13 3 -55 17 -94 31 -38 14 -95 33 -125 41 -30 8 -64 18 -75 23 -42 20
-425 122 -425 114 0 -3 -6 -1 -12 5 -7 5 -26 12 -43 15 -16 3 -82 16 -145 30
-63 15 -131 29 -150 32 -19 3 -42 7 -50 9 -8 1 -35 6 -60 10 -65 11 -85 14
-85 16 0 1 -11 3 -25 4 -14 2 -45 6 -70 10 -49 7 -92 13 -235 31 -95 12 -115
14 -200 20 -44 3 -96 8 -115 10 -19 2 -132 6 -250 9 -157 4 -223 2 -245 -7z
m755 -433 c14 -2 39 -6 55 -9 17 -3 41 -7 55 -10 14 -3 39 -7 55 -10 103 -15
437 -113 532 -156 24 -10 47 -19 53 -19 6 0 22 -7 35 -16 14 -9 25 -14 25 -11
0 6 316 -150 335 -165 6 -4 60 -40 120 -80 61 -40 117 -78 125 -85 8 -6 41
-33 74 -59 102 -82 144 -123 311 -299 11 -12 44 -52 72 -91 29 -38 56 -73 61
-79 52 -64 226 -377 245 -440 3 -11 18 -51 32 -90 45 -116 78 -240 112 -415 4
-24 6 -43 20 -185 13 -131 7 -426 -11 -540 -3 -16 -8 -52 -12 -80 -3 -27 -8
-59 -10 -70 -12 -64 -28 -137 -41 -185 -8 -30 -16 -65 -19 -77 -2 -12 -9 -35
-15 -50 -6 -16 -11 -30 -11 -33 -2 -17 -73 -226 -92 -272 -9 -21 -16 -40 -17
-43 -1 -22 -187 -401 -218 -444 -12 -16 -21 -32 -21 -37 0 -4 -16 -31 -35 -60
-19 -29 -35 -55 -35 -59 0 -3 -11 -21 -25 -39 -14 -18 -25 -38 -25 -44 0 -7
-4 -12 -10 -12 -5 0 -17 -16 -26 -36 -16 -34 -36 -47 -129 -85 -11 -5 -87 -36
-170 -69 -82 -34 -156 -64 -164 -67 -14 -6 -13 18 3 72 13 48 28 102 31 120 2
11 9 36 14 55 9 31 56 227 66 273 2 10 7 28 11 39 3 11 7 30 9 41 1 12 15 81
30 152 14 72 28 143 30 158 2 16 7 42 10 58 8 35 13 65 20 129 3 25 7 56 10
70 42 274 57 583 41 865 -4 72 -9 144 -11 160 -7 54 -36 247 -41 269 -8 37
-22 100 -28 126 -4 14 -8 34 -11 45 -19 82 -101 343 -140 445 -9 25 -26 70
-37 100 -51 138 -72 170 -136 198 -37 16 -78 19 -414 21 -368 3 -732 8 -755
10 -9 1 -12 133 -12 549 0 301 2 555 5 564 3 11 12 15 27 12 12 -3 33 -7 47
-10z m4950 -3478 c82 -8 145 -15 145 -16 0 -1 11 -3 25 -6 14 -2 40 -6 57 -9
18 -3 35 -6 38 -6 2 0 46 -12 97 -26 51 -13 100 -26 107 -27 34 -6 16 -24 -66
-67 -281 -148 -396 -209 -410 -221 -7 -6 -13 -8 -13 -4 0 3 -18 -5 -40 -19
-22 -14 -44 -25 -49 -25 -5 0 -14 -7 -21 -15 -7 -8 -20 -15 -29 -15 -9 0 -27
-9 -41 -20 -14 -11 -33 -20 -42 -20 -10 0 -18 -3 -18 -7 0 -5 -10 -13 -23 -19
-86 -42 -193 -99 -198 -107 -3 -5 -10 -9 -15 -9 -5 0 -27 -10 -49 -21 -22 -12
-43 -20 -47 -19 -5 1 -8 -2 -8 -8 0 -5 -4 -10 -10 -10 -5 0 -32 -13 -60 -30
-27 -16 -50 -27 -50 -24 0 3 -12 -3 -27 -14 -16 -10 -52 -31 -82 -46 -30 -16
-62 -32 -70 -36 -9 -5 -23 -11 -31 -14 -8 -4 -28 -14 -45 -24 -38 -24 -249
-135 -340 -181 -38 -19 -72 -38 -75 -41 -7 -8 -100 -51 -119 -55 -9 -2 -56
-14 -106 -28 -125 -35 -307 -82 -365 -93 -14 -3 -56 -11 -95 -19 -38 -8 -88
-17 -110 -19 -22 -3 -51 -8 -65 -11 -82 -17 -281 -23 -381 -12 -65 7 -146 33
-166 52 -7 7 -17 15 -21 17 -5 1 -12 13 -16 24 -5 17 5 33 51 77 32 31 69 65
83 77 14 11 39 33 55 48 48 44 178 154 220 187 21 17 43 35 49 40 6 6 27 22
46 35 19 14 48 36 64 50 16 14 32 24 37 22 5 -1 9 2 9 7 0 11 342 241 357 241
6 0 13 4 15 8 15 37 508 272 673 321 22 7 49 16 60 21 21 9 112 35 155 44 14
3 56 12 93 21 77 17 109 23 163 30 22 3 55 7 74 10 19 3 68 7 109 10 41 3 76
7 78 8 4 5 381 -1 443 -7z m-4460 -1270 c30 -3 78 -7 105 -11 112 -13 108 -8
90 -105 -10 -52 -12 -59 -15 -62 -2 -3 -5 -19 -13 -60 -9 -43 -78 -207 -111
-263 -83 -136 -185 -237 -309 -304 -73 -39 -220 -90 -272 -93 l-39 -3 -1 443
c0 289 3 446 10 450 5 3 46 8 90 10 44 2 81 5 82 6 4 4 326 -3 383 -8z m-1364
-466 l0 -447 -55 12 c-162 35 -338 120 -436 212 -56 52 -125 144 -160 212 -34
68 -74 181 -80 224 -1 12 -5 38 -9 57 -17 96 -26 85 87 105 56 9 113 19 127
22 36 7 58 10 120 18 30 4 66 8 80 11 14 2 63 6 110 10 47 4 86 7 87 8 1 1 31
2 66 2 l63 1 0 -447z"/>
</g>
</svg>
